<mxfile host="app.diagrams.net" modified="2023-09-27T08:14:07.835Z" agent="Mozilla/5.0 (Windows NT 10.0; Win64; x64) AppleWebKit/537.36 (KHTML, like Gecko) Chrome/116.0.0.0 Safari/537.36" etag="rR59XNPLZCPwovbJrD4U" version="21.8.2" type="github">
  <diagram name="Page-1" id="74b105a0-9070-1c63-61bc-23e55f88626e">
    <mxGraphModel dx="1434" dy="807" grid="1" gridSize="10" guides="1" tooltips="1" connect="1" arrows="1" fold="1" page="1" pageScale="1.5" pageWidth="1169" pageHeight="826" background="none" math="0" shadow="0">
      <root>
        <mxCell id="0" style=";html=1;" />
        <mxCell id="1" style=";html=1;" parent="0" />
        <mxCell id="l4lZfrGQNqthM735NDkL-2" value="Clients" style="rounded=0;whiteSpace=wrap;html=1;align=left;verticalAlign=top;dashed=1;dashPattern=8 8;fontSize=20;" vertex="1" parent="1">
          <mxGeometry x="40" y="320" width="280" height="440" as="geometry" />
        </mxCell>
        <mxCell id="l4lZfrGQNqthM735NDkL-4" value="" style="group" vertex="1" connectable="0" parent="1">
          <mxGeometry x="90" y="490" width="150" height="90" as="geometry" />
        </mxCell>
        <mxCell id="10b056a9c633e61c-4" value="Website" style="strokeWidth=2;dashed=0;align=center;fontSize=12;shape=rect;verticalLabelPosition=bottom;verticalAlign=top;fillColor=#c0f5a9;movable=1;resizable=1;rotatable=1;deletable=1;editable=1;locked=0;connectable=1;" parent="l4lZfrGQNqthM735NDkL-4" vertex="1">
          <mxGeometry width="150" height="90" as="geometry" />
        </mxCell>
        <mxCell id="10b056a9c633e61c-5" value="" style="strokeWidth=1;dashed=0;align=center;fontSize=8;shape=rect;fillColor=#ffffff;strokeColor=#000000;movable=1;resizable=1;rotatable=1;deletable=1;editable=1;locked=0;connectable=1;" parent="l4lZfrGQNqthM735NDkL-4" vertex="1">
          <mxGeometry x="30" y="10" width="90" height="70" as="geometry" />
        </mxCell>
        <mxCell id="l4lZfrGQNqthM735NDkL-3" value="&lt;h1 style=&quot;font-size: 7px;&quot;&gt;Heading&lt;/h1&gt;&lt;p style=&quot;font-size: 7px;&quot;&gt;Lorem ipsum dolor sit amet, consectetur adipisicing elit, sed do eiusmod tempor incididunt ut labore et dolore magna aliqua.&lt;/p&gt;" style="text;html=1;strokeColor=none;fillColor=none;spacing=5;spacingTop=-20;whiteSpace=wrap;overflow=hidden;rounded=0;fontSize=7;verticalAlign=middle;align=left;horizontal=1;movable=1;resizable=1;rotatable=1;deletable=1;editable=1;locked=0;connectable=1;" vertex="1" parent="l4lZfrGQNqthM735NDkL-4">
          <mxGeometry x="30" y="20" width="90" height="70" as="geometry" />
        </mxCell>
        <mxCell id="l4lZfrGQNqthM735NDkL-5" value="Docker" style="rounded=0;whiteSpace=wrap;html=1;align=left;verticalAlign=top;dashed=1;dashPattern=8 8;fontSize=20;" vertex="1" parent="1">
          <mxGeometry x="420" y="250" width="1130" height="760" as="geometry" />
        </mxCell>
        <mxCell id="l4lZfrGQNqthM735NDkL-7" value="" style="group;labelBackgroundColor=none;labelBorderColor=none;" vertex="1" connectable="0" parent="1">
          <mxGeometry x="485" y="495" width="150" height="90" as="geometry" />
        </mxCell>
        <mxCell id="l4lZfrGQNqthM735NDkL-51" value="" style="group" vertex="1" connectable="0" parent="l4lZfrGQNqthM735NDkL-7">
          <mxGeometry width="150" height="90" as="geometry" />
        </mxCell>
        <mxCell id="l4lZfrGQNqthM735NDkL-8" value="Api-Gateway" style="strokeWidth=2;dashed=0;align=center;fontSize=12;shape=rect;verticalLabelPosition=bottom;verticalAlign=top;fillColor=#c0f5a9;movable=1;resizable=1;rotatable=1;deletable=1;editable=1;locked=0;connectable=1;labelBackgroundColor=default;" vertex="1" parent="l4lZfrGQNqthM735NDkL-51">
          <mxGeometry width="150" height="90" as="geometry" />
        </mxCell>
        <mxCell id="l4lZfrGQNqthM735NDkL-11" value="" style="sketch=0;points=[[0,0,0],[0.25,0,0],[0.5,0,0],[0.75,0,0],[1,0,0],[0,1,0],[0.25,1,0],[0.5,1,0],[0.75,1,0],[1,1,0],[0,0.25,0],[0,0.5,0],[0,0.75,0],[1,0.25,0],[1,0.5,0],[1,0.75,0]];outlineConnect=0;fontColor=#232F3E;fillColor=#E7157B;strokeColor=#ffffff;dashed=0;verticalLabelPosition=bottom;verticalAlign=top;align=center;html=1;fontSize=12;fontStyle=0;aspect=fixed;shape=mxgraph.aws4.resourceIcon;resIcon=mxgraph.aws4.api_gateway;" vertex="1" parent="l4lZfrGQNqthM735NDkL-51">
          <mxGeometry x="38" y="8" width="74" height="74" as="geometry" />
        </mxCell>
        <mxCell id="l4lZfrGQNqthM735NDkL-12" style="edgeStyle=orthogonalEdgeStyle;rounded=0;orthogonalLoop=1;jettySize=auto;html=1;" edge="1" parent="1" source="10b056a9c633e61c-4" target="l4lZfrGQNqthM735NDkL-8">
          <mxGeometry relative="1" as="geometry">
            <Array as="points">
              <mxPoint x="270" y="540" />
              <mxPoint x="270" y="540" />
            </Array>
          </mxGeometry>
        </mxCell>
        <mxCell id="l4lZfrGQNqthM735NDkL-15" style="rounded=0;orthogonalLoop=1;jettySize=auto;html=1;entryX=-0.013;entryY=0.083;entryDx=0;entryDy=0;entryPerimeter=0;" edge="1" parent="1" source="l4lZfrGQNqthM735NDkL-13" target="l4lZfrGQNqthM735NDkL-58">
          <mxGeometry relative="1" as="geometry">
            <mxPoint x="1310" y="490" as="targetPoint" />
          </mxGeometry>
        </mxCell>
        <mxCell id="l4lZfrGQNqthM735NDkL-35" style="rounded=0;orthogonalLoop=1;jettySize=auto;html=1;" edge="1" parent="1" source="l4lZfrGQNqthM735NDkL-13" target="l4lZfrGQNqthM735NDkL-33">
          <mxGeometry relative="1" as="geometry" />
        </mxCell>
        <mxCell id="l4lZfrGQNqthM735NDkL-14" value="" style="rounded=0;orthogonalLoop=1;jettySize=auto;html=1;" edge="1" parent="1" source="l4lZfrGQNqthM735NDkL-8" target="l4lZfrGQNqthM735NDkL-13">
          <mxGeometry relative="1" as="geometry" />
        </mxCell>
        <mxCell id="l4lZfrGQNqthM735NDkL-18" style="rounded=0;orthogonalLoop=1;jettySize=auto;html=1;" edge="1" parent="1" source="l4lZfrGQNqthM735NDkL-16" target="l4lZfrGQNqthM735NDkL-58">
          <mxGeometry relative="1" as="geometry">
            <mxPoint x="1320" y="550" as="targetPoint" />
          </mxGeometry>
        </mxCell>
        <mxCell id="l4lZfrGQNqthM735NDkL-17" style="rounded=0;orthogonalLoop=1;jettySize=auto;html=1;" edge="1" parent="1" source="l4lZfrGQNqthM735NDkL-8" target="l4lZfrGQNqthM735NDkL-16">
          <mxGeometry relative="1" as="geometry" />
        </mxCell>
        <mxCell id="l4lZfrGQNqthM735NDkL-21" style="rounded=0;orthogonalLoop=1;jettySize=auto;html=1;entryX=-0.04;entryY=0.85;entryDx=0;entryDy=0;entryPerimeter=0;" edge="1" parent="1" source="l4lZfrGQNqthM735NDkL-19" target="l4lZfrGQNqthM735NDkL-58">
          <mxGeometry relative="1" as="geometry">
            <mxPoint x="1310" y="710" as="targetPoint" />
          </mxGeometry>
        </mxCell>
        <mxCell id="l4lZfrGQNqthM735NDkL-46" style="rounded=0;orthogonalLoop=1;jettySize=auto;html=1;" edge="1" parent="1" source="l4lZfrGQNqthM735NDkL-19" target="l4lZfrGQNqthM735NDkL-44">
          <mxGeometry relative="1" as="geometry" />
        </mxCell>
        <mxCell id="l4lZfrGQNqthM735NDkL-20" style="rounded=0;orthogonalLoop=1;jettySize=auto;html=1;" edge="1" parent="1" source="l4lZfrGQNqthM735NDkL-8" target="l4lZfrGQNqthM735NDkL-19">
          <mxGeometry relative="1" as="geometry" />
        </mxCell>
        <mxCell id="l4lZfrGQNqthM735NDkL-26" style="edgeStyle=orthogonalEdgeStyle;rounded=0;orthogonalLoop=1;jettySize=auto;html=1;exitX=0.25;exitY=1;exitDx=0;exitDy=0;entryX=0.25;entryY=0;entryDx=0;entryDy=0;" edge="1" parent="1" source="l4lZfrGQNqthM735NDkL-8" target="l4lZfrGQNqthM735NDkL-24">
          <mxGeometry relative="1" as="geometry" />
        </mxCell>
        <mxCell id="l4lZfrGQNqthM735NDkL-23" value="" style="group" vertex="1" connectable="0" parent="1">
          <mxGeometry x="485" y="660" width="150" height="90" as="geometry" />
        </mxCell>
        <mxCell id="l4lZfrGQNqthM735NDkL-52" value="" style="group" vertex="1" connectable="0" parent="l4lZfrGQNqthM735NDkL-23">
          <mxGeometry width="150" height="90" as="geometry" />
        </mxCell>
        <mxCell id="l4lZfrGQNqthM735NDkL-24" value="Redis" style="strokeWidth=2;dashed=0;align=center;fontSize=12;shape=rect;verticalLabelPosition=bottom;verticalAlign=top;fillColor=#c0f5a9;movable=1;resizable=1;rotatable=1;deletable=1;editable=1;locked=0;connectable=1;" vertex="1" parent="l4lZfrGQNqthM735NDkL-52">
          <mxGeometry width="150" height="90" as="geometry" />
        </mxCell>
        <mxCell id="l4lZfrGQNqthM735NDkL-22" value="" style="image;sketch=0;aspect=fixed;html=1;points=[];align=center;fontSize=12;image=img/lib/mscae/Cache_Redis_Product.svg;" vertex="1" parent="l4lZfrGQNqthM735NDkL-52">
          <mxGeometry x="30" y="10" width="83.33" height="70" as="geometry" />
        </mxCell>
        <mxCell id="l4lZfrGQNqthM735NDkL-32" value="" style="group" vertex="1" connectable="0" parent="1">
          <mxGeometry x="980" y="280" width="150" height="100" as="geometry" />
        </mxCell>
        <mxCell id="l4lZfrGQNqthM735NDkL-50" value="" style="group" vertex="1" connectable="0" parent="l4lZfrGQNqthM735NDkL-32">
          <mxGeometry width="150" height="90" as="geometry" />
        </mxCell>
        <mxCell id="l4lZfrGQNqthM735NDkL-33" value="Survey-Database" style="strokeWidth=2;dashed=0;align=center;fontSize=12;shape=rect;verticalLabelPosition=bottom;verticalAlign=top;fillColor=#c0f5a9;movable=1;resizable=1;rotatable=1;deletable=1;editable=1;locked=0;connectable=1;" vertex="1" parent="l4lZfrGQNqthM735NDkL-50">
          <mxGeometry width="150" height="90" as="geometry" />
        </mxCell>
        <mxCell id="l4lZfrGQNqthM735NDkL-28" value="" style="image;aspect=fixed;perimeter=ellipsePerimeter;html=1;align=center;shadow=0;dashed=0;spacingTop=3;image=img/lib/active_directory/databases.svg;" vertex="1" parent="l4lZfrGQNqthM735NDkL-50">
          <mxGeometry x="34.44" y="5.25" width="81.12" height="79.5" as="geometry" />
        </mxCell>
        <mxCell id="l4lZfrGQNqthM735NDkL-37" value="" style="group" vertex="1" connectable="0" parent="1">
          <mxGeometry x="817" y="330" width="120" height="80" as="geometry" />
        </mxCell>
        <mxCell id="l4lZfrGQNqthM735NDkL-13" value="Survey-Service" style="shape=hexagon;perimeter=hexagonPerimeter2;whiteSpace=wrap;html=1;fixedSize=1;verticalAlign=top;fillColor=#c0f5a9;strokeWidth=2;dashed=0;size=30;labelPosition=center;verticalLabelPosition=bottom;align=center;" vertex="1" parent="l4lZfrGQNqthM735NDkL-37">
          <mxGeometry width="120" height="80" as="geometry" />
        </mxCell>
        <mxCell id="l4lZfrGQNqthM735NDkL-29" value="" style="sketch=0;html=1;dashed=0;whitespace=wrap;fillColor=#2875E2;strokeColor=#ffffff;points=[[0.005,0.63,0],[0.1,0.2,0],[0.9,0.2,0],[0.5,0,0],[0.995,0.63,0],[0.72,0.99,0],[0.5,1,0],[0.28,0.99,0]];verticalLabelPosition=bottom;align=center;verticalAlign=top;shape=mxgraph.kubernetes.icon;prIcon=api" vertex="1" parent="l4lZfrGQNqthM735NDkL-37">
          <mxGeometry x="27.5" y="6" width="65" height="68" as="geometry" />
        </mxCell>
        <mxCell id="l4lZfrGQNqthM735NDkL-38" value="" style="group" vertex="1" connectable="0" parent="1">
          <mxGeometry x="817" y="500" width="120" height="80" as="geometry" />
        </mxCell>
        <mxCell id="l4lZfrGQNqthM735NDkL-16" value="RPG-Service" style="shape=hexagon;perimeter=hexagonPerimeter2;whiteSpace=wrap;html=1;fixedSize=1;verticalAlign=top;fillColor=#c0f5a9;strokeWidth=2;dashed=0;size=30;labelPosition=center;verticalLabelPosition=bottom;align=center;" vertex="1" parent="l4lZfrGQNqthM735NDkL-38">
          <mxGeometry width="120" height="80" as="geometry" />
        </mxCell>
        <mxCell id="l4lZfrGQNqthM735NDkL-30" value="" style="sketch=0;html=1;dashed=0;whitespace=wrap;fillColor=#2875E2;strokeColor=#ffffff;points=[[0.005,0.63,0],[0.1,0.2,0],[0.9,0.2,0],[0.5,0,0],[0.995,0.63,0],[0.72,0.99,0],[0.5,1,0],[0.28,0.99,0]];verticalLabelPosition=bottom;align=center;verticalAlign=top;shape=mxgraph.kubernetes.icon;prIcon=api" vertex="1" parent="l4lZfrGQNqthM735NDkL-38">
          <mxGeometry x="27.5" y="6" width="65" height="68" as="geometry" />
        </mxCell>
        <mxCell id="l4lZfrGQNqthM735NDkL-39" value="" style="group" vertex="1" connectable="0" parent="1">
          <mxGeometry x="950" y="600" width="150" height="100" as="geometry" />
        </mxCell>
        <mxCell id="l4lZfrGQNqthM735NDkL-49" value="" style="group" vertex="1" connectable="0" parent="l4lZfrGQNqthM735NDkL-39">
          <mxGeometry width="150" height="90" as="geometry" />
        </mxCell>
        <mxCell id="l4lZfrGQNqthM735NDkL-40" value="RPG-Database" style="strokeWidth=2;dashed=0;align=center;fontSize=12;shape=rect;verticalLabelPosition=bottom;verticalAlign=top;fillColor=#c0f5a9;movable=1;resizable=1;rotatable=1;deletable=1;editable=1;locked=0;connectable=1;" vertex="1" parent="l4lZfrGQNqthM735NDkL-49">
          <mxGeometry width="150" height="90" as="geometry" />
        </mxCell>
        <mxCell id="l4lZfrGQNqthM735NDkL-41" value="" style="image;aspect=fixed;perimeter=ellipsePerimeter;html=1;align=center;shadow=0;dashed=0;spacingTop=3;image=img/lib/active_directory/databases.svg;" vertex="1" parent="l4lZfrGQNqthM735NDkL-49">
          <mxGeometry x="34.44" y="5.25" width="81.12" height="79.5" as="geometry" />
        </mxCell>
        <mxCell id="l4lZfrGQNqthM735NDkL-42" style="rounded=0;orthogonalLoop=1;jettySize=auto;html=1;" edge="1" parent="1" source="l4lZfrGQNqthM735NDkL-16" target="l4lZfrGQNqthM735NDkL-40">
          <mxGeometry relative="1" as="geometry" />
        </mxCell>
        <mxCell id="l4lZfrGQNqthM735NDkL-43" value="" style="group" vertex="1" connectable="0" parent="1">
          <mxGeometry x="960" y="840" width="150" height="100" as="geometry" />
        </mxCell>
        <mxCell id="l4lZfrGQNqthM735NDkL-48" value="" style="group" vertex="1" connectable="0" parent="l4lZfrGQNqthM735NDkL-43">
          <mxGeometry width="150" height="90" as="geometry" />
        </mxCell>
        <mxCell id="l4lZfrGQNqthM735NDkL-44" value="Discord-Database" style="strokeWidth=2;dashed=0;align=center;fontSize=12;shape=rect;verticalLabelPosition=bottom;verticalAlign=top;fillColor=#c0f5a9;movable=1;resizable=1;rotatable=1;deletable=1;editable=1;locked=0;connectable=1;" vertex="1" parent="l4lZfrGQNqthM735NDkL-48">
          <mxGeometry width="150" height="90" as="geometry" />
        </mxCell>
        <mxCell id="l4lZfrGQNqthM735NDkL-45" value="" style="image;aspect=fixed;perimeter=ellipsePerimeter;html=1;align=center;shadow=0;dashed=0;spacingTop=3;image=img/lib/active_directory/databases.svg;" vertex="1" parent="l4lZfrGQNqthM735NDkL-48">
          <mxGeometry x="34.44" y="5.25" width="81.12" height="79.5" as="geometry" />
        </mxCell>
        <mxCell id="l4lZfrGQNqthM735NDkL-47" value="" style="group" vertex="1" connectable="0" parent="1">
          <mxGeometry x="817" y="730" width="120" height="80" as="geometry" />
        </mxCell>
        <mxCell id="l4lZfrGQNqthM735NDkL-19" value="Discord-Service" style="shape=hexagon;perimeter=hexagonPerimeter2;whiteSpace=wrap;html=1;fixedSize=1;verticalAlign=top;fillColor=#c0f5a9;strokeWidth=2;dashed=0;size=30;labelPosition=center;verticalLabelPosition=bottom;align=center;" vertex="1" parent="l4lZfrGQNqthM735NDkL-47">
          <mxGeometry width="120" height="80" as="geometry" />
        </mxCell>
        <mxCell id="l4lZfrGQNqthM735NDkL-31" value="" style="sketch=0;html=1;dashed=0;whitespace=wrap;fillColor=#2875E2;strokeColor=#ffffff;points=[[0.005,0.63,0],[0.1,0.2,0],[0.9,0.2,0],[0.5,0,0],[0.995,0.63,0],[0.72,0.99,0],[0.5,1,0],[0.28,0.99,0]];verticalLabelPosition=bottom;align=center;verticalAlign=top;shape=mxgraph.kubernetes.icon;prIcon=api" vertex="1" parent="l4lZfrGQNqthM735NDkL-47">
          <mxGeometry x="27.5" y="6" width="65" height="68" as="geometry" />
        </mxCell>
        <mxCell id="l4lZfrGQNqthM735NDkL-56" value="" style="group" vertex="1" connectable="0" parent="1">
          <mxGeometry x="1320" y="350" width="150" height="510" as="geometry" />
        </mxCell>
        <mxCell id="l4lZfrGQNqthM735NDkL-57" value="" style="group" vertex="1" connectable="0" parent="l4lZfrGQNqthM735NDkL-56">
          <mxGeometry x="10" width="150" height="458.99999999999994" as="geometry" />
        </mxCell>
        <mxCell id="l4lZfrGQNqthM735NDkL-60" value="" style="group" vertex="1" connectable="0" parent="l4lZfrGQNqthM735NDkL-57">
          <mxGeometry width="150" height="458.99999999999994" as="geometry" />
        </mxCell>
        <mxCell id="l4lZfrGQNqthM735NDkL-62" value="" style="group" vertex="1" connectable="0" parent="l4lZfrGQNqthM735NDkL-60">
          <mxGeometry width="150" height="458.99999999999994" as="geometry" />
        </mxCell>
        <mxCell id="l4lZfrGQNqthM735NDkL-58" value="RabbitMQ (MEssageQueue)" style="strokeWidth=2;dashed=0;align=center;fontSize=12;shape=rect;verticalLabelPosition=bottom;verticalAlign=top;fillColor=#c0f5a9;movable=1;resizable=1;rotatable=1;deletable=1;editable=1;locked=0;connectable=1;" vertex="1" parent="l4lZfrGQNqthM735NDkL-62">
          <mxGeometry width="150" height="458.99999999999994" as="geometry" />
        </mxCell>
        <mxCell id="l4lZfrGQNqthM735NDkL-55" value="" style="sketch=0;aspect=fixed;pointerEvents=1;shadow=0;dashed=0;html=1;strokeColor=none;labelPosition=center;verticalLabelPosition=bottom;verticalAlign=top;align=center;fillColor=#00188D;shape=mxgraph.azure.queue_generic;labelBorderColor=none;flipV=0;flipH=0;rotation=0;direction=south;" vertex="1" parent="l4lZfrGQNqthM735NDkL-62">
          <mxGeometry x="29.47" y="77.75" width="91.05" height="303.5" as="geometry" />
        </mxCell>
      </root>
    </mxGraphModel>
  </diagram>
</mxfile>
